<?xml version="1.0" encoding="UTF-8"?><svg id="a" xmlns="http://www.w3.org/2000/svg" viewBox="0 0 800 600.7"><path d="M416.29,345.74c3.62,16.49,.91,32.91-.37,49.35-1.54,19.69-3.45,39.42,1.17,58.99,.73,3.1,1.92,6.09,3.08,9.68-6.79,0-13.43,0-20.06,0-3.37,0-6.73,.03-10.1,.04-5.74,.01-7.12-1.12-7.35-7.02-.41-10.23-.41-20.47-.88-30.7-.65-14.15-2.19-28.16-7.6-41.45-9.13-22.42-29.7-36.17-53.45-35.27-12.66,.48-23.68,5.4-33.15,13.91,18.57-8.59,37.23-12.21,56.1-1.25,13.39,7.78,20.53,20.1,24.81,35.91-7.39-9.43-15.34-16.18-26.01-18.88-10.82-2.73-20.98-.91-30.41,4.7,4.33,0,8.64-.12,12.95,.02,27.07,.91,48.91,26.06,46.26,53.01-.88,8.91-2.9,17.42-8.11,24.8-1.19,1.68-3.59,3.31-5.58,3.52-38.57,3.99-75.9,13.19-112.38,26.11-2.29,.81-4.03,.57-6.07-1.13-23-19.17-35.99-43.55-38.33-73.41-3.46-44.18,9.78-83.29,36.28-118.33,13.1-17.32,30.42-30.05,46.71-43.99,13.07-11.18,25.2-23.46,37.69-35.32,1.4-1.33,2.42-3.06,3.16-5.27-8.59,5.48-17.19,10.97-26.84,17.12,14.52-18.83,30.16-35.5,40.51-56.98-8.88,4.78-16.88,9.09-24.88,13.39l-1.14-1.42c12.59-12.92,25.17-25.84,37.76-38.76l-.54-.82c-3.87,.7-7.74,1.4-12.78,2.31,6.47-5.85,13.5-9.54,16.91-17.55-2.21-.26-4.01-.47-5.44-.64,9.12-8.92,18.27-17.86,27.4-26.8-5.3,16.22-8.7,32.79-1.2,49.54-3.43-33.51,9.76-60.99,30.67-85.94,4.65,17.36,6.56,35.34,17.79,50.91-1.86-9.23-3.48-17.7-5.32-26.12-.86-3.91-.68-7.29,2.05-10.56,2.96-3.54,5.43-7.47,8.19-11.17,.87-1.17,2-2.16,3.79-4.05,.74,2.59,1.46,4.19,1.61,5.84,.87,9.62,1.37,19.28,2.5,28.86,.5,4.23,2.18,8.31,3.45,12.9-2.87-1.49-5.72-2.97-8.57-4.45l-.48,.63c9.04,8.1,18.08,16.2,27.11,24.29l.57-.34c-3.03-4.34-6.06-8.68-9.09-13.02,7.43,3.24,18.04,17.58,18.96,25.66,.3,2.64,.54,5.3,.81,7.95,.58,5.65,3.36,10.02,7.88,13.3,2.02,1.46,4.18,2.73,7.25,4.71-4.31,7.3-8,14.98-13.04,21.64-3.74,4.95-9.94,6.72-17.48,7.04,2.38-2.57,4.02-4.34,5.66-6.11l-.23-.24c-4.73,3.97-9.49,7.88-14.11,11.97-.47,.42,.05,1.87-.01,2.83-.64,9.84,2.78,18.66,6.77,27.37,2.36,5.15,4.51,10.4,6.33,15.89-13.19-20.51-30.75-35.6-53.32-44.84,28.54,20.61,51.22,45.06,55.09,82.25-4.23-6.92-7.84-14.13-12.68-20.39-4.81-6.22-10.85-11.47-17.08-16.61,12.67,16.73,21.69,34.74,22.82,56.11-4.57-8.83-9.34-17.46-18.07-23.66,2.15,8.22,4.65,15.87,6.07,23.72,1.4,7.73,1.71,15.65,1.84,23.46-4.93-9.1-9.85-18.2-14.78-27.3l-1.44,.5c2.7,17.27,4.23,34.59,3.01,52.74-4.24-5.07-7.93-9.48-11.62-13.89l-1,.72Zm-196.55,73.46c1.58-6.92,2.85-13.92,4.79-20.73,7.09-24.86,18.18-47.54,37.53-65.34,11.94-10.99,25.78-18.26,42.32-19.1,20.55-1.04,37.09,7.32,49.82,22.97,5.74,7.06,10.19,15.16,15.09,22.58-.25-1.8-.59-4.09-.89-6.39-4.75-35.67-35.99-57.61-70.93-49.69-6.53,1.48-12.95,3.44-19.96,5.32,13.75-13.56,30.78-19.52,48.27-24.55-13.43-1.33-34.62,4.21-48.14,13.23-43.5,29.04-59.77,71.2-57.91,121.7ZM463.54,162.02c.81-9.34-1.3-13.73-9.13-15.44-6.53-1.43-13.5-1.45-20.24-1.14-4.07,.18-8.07,2.16-12.84,3.55,10.46,0,19.93-.16,29.39,.07,4.83,.12,8.45,2.56,10.25,7.3,.66,1.73,1.52,3.38,2.57,5.67Zm-69.34-35.8c-1.32-2.49-2.88-4.14-2.97-5.87-.22-4.01-.1-8.12,.57-12.07,1.01-5.93,2.62-11.75,4.24-18.75-6.94,14.1-10.52,27.73-9.77,43.25,3.46-2.87,6.12-5.06,7.93-6.56Zm31.38,32.11c6.53-.53,11.97-1.42,17.37-1.27,5.42,.15,10.8,1.35,15.89,2.05-4.06-6.4-20.67-7.29-33.26-.78Z"/><path d="M512.97,339.02c30.18,18.98,48.01,47.28,45.93,81.99-2.52,41.95-32.72,73.71-74.42,82.93-10.03,2.22-20.5,3.33-30.78,3.36-75.44,.27-150.88,.13-226.32,.12-1.5,0-2.99,0-4.49,0-.08-.31-.17-.62-.25-.92,6.27-2.42,12.48-5,18.82-7.23,29.14-10.28,58.72-19.02,89.37-23.38,13.69-1.95,27.56-3.13,41.38-3.58,18.49-.61,37.06,.62,55.51-.35,34.33-1.81,63.73-14.9,84.9-42.68,18.48-24.24,20.12-50.76,6.87-78.18-1.03-2.14-2.15-4.23-3.28-6.32-1.05-1.94-2.16-3.84-3.25-5.76Z"/></svg>